<?xml version="1.0" encoding="UTF-8" standalone="no"?>
<!-- Created with Inkscape (http://www.inkscape.org/) -->

<svg
   xmlns:dc="http://purl.org/dc/elements/1.1/"
   xmlns:cc="http://creativecommons.org/ns#"
   xmlns:rdf="http://www.w3.org/1999/02/22-rdf-syntax-ns#"
   xmlns:svg="http://www.w3.org/2000/svg"
   xmlns="http://www.w3.org/2000/svg"
   xmlns:sodipodi="http://sodipodi.sourceforge.net/DTD/sodipodi-0.dtd"
   xmlns:inkscape="http://www.inkscape.org/namespaces/inkscape"
   version="1.1"
   id="svg2"
   width="1365.3333"
   height="666.66669"
   viewBox="0 0 1365.3333 666.66669"
   sodipodi:docname="feature_graphic.svg"
   inkscape:version="0.92.1 r15371">
  <metadata
     id="metadata8">
    <rdf:RDF>
      <cc:Work
         rdf:about="">
        <dc:format>image/svg+xml</dc:format>
        <dc:type
           rdf:resource="http://purl.org/dc/dcmitype/StillImage" />
        <dc:title></dc:title>
      </cc:Work>
    </rdf:RDF>
  </metadata>
  <defs
     id="defs6">
    <filter
       height="1.0229321"
       y="-0.011466025"
       width="1.0251724"
       x="-0.012586139"
       id="filter4623"
       style="color-interpolation-filters:sRGB"
       inkscape:collect="always">
      <feGaussianBlur
         id="feGaussianBlur4625"
         stdDeviation="0.66177205"
         inkscape:collect="always" />
    </filter>
  </defs>
  <sodipodi:namedview
     pagecolor="#ffffff"
     bordercolor="#666666"
     borderopacity="1"
     objecttolerance="10"
     gridtolerance="10"
     guidetolerance="10"
     inkscape:pageopacity="0"
     inkscape:pageshadow="2"
     inkscape:window-width="3200"
     inkscape:window-height="1671"
     id="namedview4"
     showgrid="false"
     inkscape:zoom="1.8742677"
     inkscape:cx="682.66663"
     inkscape:cy="333.33334"
     inkscape:window-x="0"
     inkscape:window-y="55"
     inkscape:window-maximized="1"
     inkscape:current-layer="svg2" />
  <g
     id="g917"
     transform="matrix(3.564638,0,0,3.564638,-17.69278,-21.182865)">
    <circle
       r="88"
       cy="98"
       cx="98"
       id="path819"
       style="opacity:1;fill:#7474ee;fill-opacity:1;stroke:none;stroke-width:0.94488192;stroke-linecap:round;stroke-miterlimit:4;stroke-dasharray:none;stroke-dashoffset:0;stroke-opacity:1" />
    <g
       transform="translate(98.472441,97.527556)"
       style="fill:none;stroke:#2b279d;stroke-width:2;stroke-miterlimit:4;stroke-dasharray:none;stroke-opacity:1;filter:url(#filter4623)"
       id="g4621">
      <path
         sodipodi:nodetypes="cscscscscscscscscscscsc"
         inkscape:connector-curvature="0"
         id="path4607"
         d="m -54.046744,-29.307829 c 0,0 -10.409349,-2.498244 -0.832748,-13.879132 9.576601,-11.380888 17.348914,-6.245609 17.348914,-6.245609 0,0 -5.829235,-10.686932 7.078358,-13.60155 12.907592,-2.914617 17.487706,4.857696 17.487706,4.857696 0,0 4.857696,-13.046383 13.3239664,-11.519679 8.4662706,1.526705 14.2955056,7.217149 14.2955056,7.217149 0,0 1.804287,-13.601549 13.323967,-6.384401 11.519679,7.217149 8.882644,15.267045 8.882644,15.267045 0,0 11.658471,-8.327479 19.014411,1.526705 7.35594,9.854183 -6.245609,15.683419 -6.245609,15.683419 0,0 17.626497,-3.886157 16.516166,6.800774 -1.11033,10.686932 -19.569575,16.377376 -19.569575,16.377376 0,0 17.210123,9.2990182 7.078357,15.2670449 -10.131767,5.9680271 -28.591012,-2.0818698 -28.591012,-2.0818698 0,0 2.498244,12.0748449 -8.46627,15.1282539 C 5.6335225,18.158802 -1.0284608,5.9451658 -1.0284608,5.9451658 c 0,0 2.0818698,15.1282542 -10.1317662,13.7403402 -12.213636,-1.387913 -11.797262,-14.7118794 -11.797262,-14.7118794 0,0 -10.825723,7.3559394 -17.90408,1.2491214 -7.078357,-6.1068176 -0.138792,-15.267045 -0.138792,-15.267045 0,0 -15.267045,7.0783576 -18.320454,-2.775826 -3.053409,-9.854184 5.274071,-17.487706 5.274071,-17.487706 z"
         style="fill:none;fill-opacity:1;fill-rule:evenodd;stroke:#2b279d;stroke-width:2;stroke-linecap:butt;stroke-linejoin:miter;stroke-miterlimit:4;stroke-dasharray:none;stroke-opacity:1" />
      <ellipse
         ry="7.564127"
         rx="7.4253354"
         cy="24.473806"
         cx="34.571514"
         id="ellipse4609"
         style="opacity:1;fill:none;fill-opacity:1;stroke:#2b279d;stroke-width:2;stroke-linecap:round;stroke-miterlimit:4;stroke-dasharray:none;stroke-dashoffset:0;stroke-opacity:1" />
      <ellipse
         ry="3.4003873"
         rx="3.5391786"
         cy="42.598549"
         cx="44.425697"
         id="ellipse4611"
         style="opacity:1;fill:none;fill-opacity:1;stroke:#2b279d;stroke-width:2;stroke-linecap:round;stroke-miterlimit:4;stroke-dasharray:none;stroke-dashoffset:0;stroke-opacity:1" />
      <ellipse
         ry="8.8132486"
         rx="8.8826447"
         cy="28.057432"
         cx="-31.228046"
         id="ellipse4613"
         style="opacity:1;fill:none;fill-opacity:1;stroke:#2b279d;stroke-width:2;stroke-linecap:round;stroke-miterlimit:4;stroke-dasharray:none;stroke-dashoffset:0;stroke-opacity:1" />
      <ellipse
         ry="4.718905"
         rx="5.2046742"
         cy="48.945526"
         cx="-33.934479"
         id="ellipse4615"
         style="opacity:1;fill:none;fill-opacity:1;stroke:#2b279d;stroke-width:2;stroke-linecap:round;stroke-miterlimit:4;stroke-dasharray:none;stroke-dashoffset:0;stroke-opacity:1" />
      <ellipse
         ry="2.7758265"
         rx="2.9146178"
         cy="64.767738"
         cx="-31.089256"
         id="ellipse4617"
         style="opacity:1;fill:none;fill-opacity:1;stroke:#2b279d;stroke-width:2;stroke-linecap:round;stroke-miterlimit:4;stroke-dasharray:none;stroke-dashoffset:0;stroke-opacity:1" />
      <ellipse
         ry="2.9840133"
         rx="2.845222"
         cy="53.007896"
         cx="53.642845"
         id="ellipse4619"
         style="opacity:1;fill:none;fill-opacity:1;stroke:#2b279d;stroke-width:2;stroke-linecap:round;stroke-miterlimit:4;stroke-dasharray:none;stroke-dashoffset:0;stroke-opacity:1" />
    </g>
    <g
       transform="translate(98.472441,97.527556)"
       id="g4605">
      <path
         style="fill:#fdfdff;fill-opacity:1;fill-rule:evenodd;stroke:#000000;stroke-width:1px;stroke-linecap:butt;stroke-linejoin:miter;stroke-opacity:1"
         d="m -54.046744,-29.307829 c 0,0 -10.409349,-2.498244 -0.832748,-13.879132 9.576601,-11.380888 17.348914,-6.245609 17.348914,-6.245609 0,0 -5.829235,-10.686932 7.078358,-13.60155 12.907592,-2.914617 17.487706,4.857696 17.487706,4.857696 0,0 4.857696,-13.046383 13.3239664,-11.519679 8.4662706,1.526705 14.2955056,7.217149 14.2955056,7.217149 0,0 1.804287,-13.601549 13.323967,-6.384401 11.519679,7.217149 8.882644,15.267045 8.882644,15.267045 0,0 11.658471,-8.327479 19.014411,1.526705 7.35594,9.854183 -6.245609,15.683419 -6.245609,15.683419 0,0 17.626497,-3.886157 16.516166,6.800774 -1.11033,10.686932 -19.569575,16.377376 -19.569575,16.377376 0,0 17.210123,9.2990182 7.078357,15.2670449 -10.131767,5.9680271 -28.591012,-2.0818698 -28.591012,-2.0818698 0,0 2.498244,12.0748449 -8.46627,15.1282539 C 5.6335225,18.158802 -1.0284608,5.9451658 -1.0284608,5.9451658 c 0,0 2.0818698,15.1282542 -10.1317662,13.7403402 -12.213636,-1.387913 -11.797262,-14.7118794 -11.797262,-14.7118794 0,0 -10.825723,7.3559394 -17.90408,1.2491214 -7.078357,-6.1068176 -0.138792,-15.267045 -0.138792,-15.267045 0,0 -15.267045,7.0783576 -18.320454,-2.775826 -3.053409,-9.854184 5.274071,-17.487706 5.274071,-17.487706 z"
         id="path4483"
         inkscape:connector-curvature="0"
         sodipodi:nodetypes="cscscscscscscscscscscsc" />
      <ellipse
         style="opacity:1;fill:#fdfdff;fill-opacity:1;stroke:#000000;stroke-width:0.94488192;stroke-linecap:round;stroke-miterlimit:4;stroke-dasharray:none;stroke-dashoffset:0;stroke-opacity:1"
         id="path4485"
         cx="34.571514"
         cy="24.473806"
         rx="7.4253354"
         ry="7.564127" />
      <ellipse
         style="opacity:1;fill:#fdfdff;fill-opacity:1;stroke:#000000;stroke-width:0.94488192;stroke-linecap:round;stroke-miterlimit:4;stroke-dasharray:none;stroke-dashoffset:0;stroke-opacity:1"
         id="path4487"
         cx="44.425697"
         cy="42.598549"
         rx="3.5391786"
         ry="3.4003873" />
      <ellipse
         style="opacity:1;fill:#fdfdff;fill-opacity:1;stroke:#000000;stroke-width:0.94488192;stroke-linecap:round;stroke-miterlimit:4;stroke-dasharray:none;stroke-dashoffset:0;stroke-opacity:1"
         id="path4489"
         cx="-31.228046"
         cy="28.057432"
         rx="8.8826447"
         ry="8.8132486" />
      <ellipse
         style="opacity:1;fill:#fdfdff;fill-opacity:1;stroke:#000000;stroke-width:0.94488192;stroke-linecap:round;stroke-miterlimit:4;stroke-dasharray:none;stroke-dashoffset:0;stroke-opacity:1"
         id="path4491"
         cx="-33.934479"
         cy="48.945526"
         rx="5.2046742"
         ry="4.718905" />
      <ellipse
         style="opacity:1;fill:#fdfdff;fill-opacity:1;stroke:#000000;stroke-width:0.94488192;stroke-linecap:round;stroke-miterlimit:4;stroke-dasharray:none;stroke-dashoffset:0;stroke-opacity:1"
         id="path4493"
         cx="-31.089256"
         cy="64.767738"
         rx="2.9146178"
         ry="2.7758265" />
      <ellipse
         style="opacity:1;fill:#fdfdff;fill-opacity:1;stroke:#000000;stroke-width:0.94488192;stroke-linecap:round;stroke-miterlimit:4;stroke-dasharray:none;stroke-dashoffset:0;stroke-opacity:1"
         id="path4495"
         cx="53.642845"
         cy="53.007896"
         rx="2.845222"
         ry="2.9840133" />
    </g>
    <path
       style="stroke-width:1.68701708"
       inkscape:connector-curvature="0"
       id="path14"
       d="m 94.398299,88.833154 c 0,0.927859 0.759157,1.687017 1.687017,1.687017 h 6.748064 c 0.92786,0 1.68702,-0.759158 1.68702,-1.687017 V 87.146137 H 94.398299 Z M 99.45935,56.77983 c -6.511886,0 -11.809119,5.297233 -11.809119,11.809119 0,4.015101 2.00755,7.540966 5.061051,9.683478 v 3.812658 c 0,0.92786 0.759157,1.687017 1.687017,1.687017 H 104.5204 c 0.92786,0 1.68702,-0.759157 1.68702,-1.687017 v -3.812658 c 3.0535,-2.142512 5.06105,-5.668377 5.06105,-9.683478 0,-6.511886 -5.29723,-11.809119 -11.80912,-11.809119 z m 4.808,18.725889 -1.43397,1.01221 v 3.880139 h -6.748064 v -3.880139 l -1.433965,-1.01221 c -2.277473,-1.585796 -3.627086,-4.166932 -3.627086,-6.91677 0,-4.656167 3.778918,-8.435085 8.435085,-8.435085 4.65617,0 8.43509,3.778918 8.43509,8.435085 0,2.749838 -1.34962,5.330974 -3.62709,6.91677 z" />
    <path
       sodipodi:nodetypes="cc"
       inkscape:transform-center-x="23.455732"
       inkscape:connector-curvature="0"
       id="path4580"
       d="M 81.5399,69.4439 H 69.187473"
       style="fill:none;fill-rule:evenodd;stroke:#ffe503;stroke-width:4;stroke-linecap:butt;stroke-linejoin:miter;stroke-miterlimit:4;stroke-dasharray:none;stroke-opacity:1" />
    <path
       inkscape:transform-center-y="-14.39412"
       style="fill:none;fill-rule:evenodd;stroke:#ffe503;stroke-width:4;stroke-linecap:butt;stroke-linejoin:miter;stroke-miterlimit:4;stroke-dasharray:none;stroke-opacity:1"
       d="M 85.17618,58.839948 75.423182,51.259612"
       id="path4582"
       inkscape:connector-curvature="0"
       inkscape:transform-center-x="18.519737"
       sodipodi:nodetypes="cc" />
    <path
       sodipodi:nodetypes="cc"
       inkscape:transform-center-x="6.1662205"
       inkscape:connector-curvature="0"
       id="path4584"
       d="M 94.276847,52.772164 91.029548,40.854215"
       style="fill:none;fill-rule:evenodd;stroke:#ffe503;stroke-width:4;stroke-linecap:butt;stroke-linejoin:miter;stroke-miterlimit:4;stroke-dasharray:none;stroke-opacity:1"
       inkscape:transform-center-y="-22.630711" />
    <path
       inkscape:transform-center-y="-21.141714"
       style="fill:none;fill-rule:evenodd;stroke:#ffe503;stroke-width:4;stroke-linecap:butt;stroke-linejoin:miter;stroke-miterlimit:4;stroke-dasharray:none;stroke-opacity:1"
       d="m 106.3032,53.869088 5.34985,-11.133803"
       id="path4586"
       inkscape:connector-curvature="0"
       inkscape:transform-center-x="-10.158705"
       sodipodi:nodetypes="cc" />
    <path
       sodipodi:nodetypes="cc"
       inkscape:transform-center-x="-22.163525"
       inkscape:connector-curvature="0"
       id="path4588"
       d="m 115.14698,63.787727 11.67192,-4.04337"
       style="fill:none;fill-rule:evenodd;stroke:#ffe503;stroke-width:4;stroke-linecap:butt;stroke-linejoin:miter;stroke-miterlimit:4;stroke-dasharray:none;stroke-opacity:1"
       inkscape:transform-center-y="-7.6778584" />
    <path
       inkscape:transform-center-y="9.7833772"
       style="fill:none;fill-rule:evenodd;stroke:#ffe503;stroke-width:4;stroke-linecap:butt;stroke-linejoin:miter;stroke-miterlimit:4;stroke-dasharray:none;stroke-opacity:1"
       d="m 114.52409,76.651181 11.22664,5.152193"
       id="path4590"
       inkscape:connector-curvature="0"
       inkscape:transform-center-x="-21.317994"
       sodipodi:nodetypes="cc" />
    <path
       sodipodi:nodetypes="cc"
       inkscape:transform-center-x="-11.160616"
       inkscape:connector-curvature="0"
       id="path4592"
       d="m 107.04129,84.642009 5.87749,10.864514"
       style="fill:none;fill-rule:evenodd;stroke:#ffe503;stroke-width:4;stroke-linecap:butt;stroke-linejoin:miter;stroke-miterlimit:4;stroke-dasharray:none;stroke-opacity:1"
       inkscape:transform-center-y="20.630366" />
    <path
       inkscape:transform-center-y="21.961157"
       style="fill:none;fill-rule:evenodd;stroke:#ffe503;stroke-width:4;stroke-linecap:butt;stroke-linejoin:miter;stroke-miterlimit:4;stroke-dasharray:none;stroke-opacity:1"
       d="M 92.749957,85.622384 88.411145,97.18773"
       id="path4594"
       inkscape:connector-curvature="0"
       inkscape:transform-center-x="8.2388672"
       sodipodi:nodetypes="cc" />
    <path
       sodipodi:nodetypes="cc"
       inkscape:transform-center-x="19.365376"
       inkscape:connector-curvature="0"
       id="path4596"
       d="M 84.55321,79.193619 74.354874,86.1633"
       style="fill:none;fill-rule:evenodd;stroke:#ffe503;stroke-width:4;stroke-linecap:butt;stroke-linejoin:miter;stroke-miterlimit:4;stroke-dasharray:none;stroke-opacity:1"
       inkscape:transform-center-y="13.23456" />
  </g>
  <text
     xml:space="preserve"
     style="font-style:normal;font-variant:normal;font-weight:normal;font-stretch:normal;font-size:101.69799805px;line-height:81.57594299px;font-family:'DejaVu Serif';-inkscape-font-specification:'DejaVu Serif';font-variant-ligatures:normal;font-variant-caps:normal;font-variant-numeric:normal;font-feature-settings:normal;text-align:center;letter-spacing:0px;word-spacing:0px;writing-mode:lr-tb;text-anchor:middle;fill:#000000;fill-opacity:1;stroke:none;stroke-width:0.6526075px;stroke-linecap:butt;stroke-linejoin:miter;stroke-opacity:1"
     x="983.61707"
     y="140.82758"
     id="text921"><tspan
       sodipodi:role="line"
       id="tspan919"
       x="983.61707"
       y="140.82758"
       style="stroke-width:0.6526075px">Student Pairs</tspan></text>
</svg>
