<?xml version="1.0" encoding="UTF-8" standalone="no"?>
<!-- Created with Inkscape (http://www.inkscape.org/) -->

<svg
   xmlns:dc="http://purl.org/dc/elements/1.1/"
   xmlns:cc="http://creativecommons.org/ns#"
   xmlns:rdf="http://www.w3.org/1999/02/22-rdf-syntax-ns#"
   xmlns:svg="http://www.w3.org/2000/svg"
   xmlns="http://www.w3.org/2000/svg"
   xmlns:sodipodi="http://sodipodi.sourceforge.net/DTD/sodipodi-0.dtd"
   xmlns:inkscape="http://www.inkscape.org/namespaces/inkscape"
   version="1.1"
   id="svg2"
   width="196"
   height="196"
   viewBox="0 0 196 196"
   sodipodi:docname="icon.svg"
   inkscape:version="0.92.1 r15371">
  <metadata
     id="metadata8">
    <rdf:RDF>
      <cc:Work
         rdf:about="">
        <dc:format>image/svg+xml</dc:format>
        <dc:type
           rdf:resource="http://purl.org/dc/dcmitype/StillImage" />
        <dc:title></dc:title>
      </cc:Work>
    </rdf:RDF>
  </metadata>
  <defs
     id="defs6">
    <filter
       inkscape:collect="always"
       style="color-interpolation-filters:sRGB"
       id="filter4523"
       x="-0.011343524"
       width="1.022687"
       y="-0.010306181"
       height="1.0206124">
      <feGaussianBlur
         inkscape:collect="always"
         stdDeviation="0.59655554"
         id="feGaussianBlur4525" />
    </filter>
  </defs>
  <sodipodi:namedview
     pagecolor="#ffffff"
     bordercolor="#666666"
     borderopacity="1"
     objecttolerance="10"
     gridtolerance="10"
     guidetolerance="10"
     inkscape:pageopacity="0"
     inkscape:pageshadow="2"
     inkscape:window-width="3200"
     inkscape:window-height="1671"
     id="namedview4"
     showgrid="false"
     inkscape:zoom="7.2397959"
     inkscape:cx="98"
     inkscape:cy="98"
     inkscape:window-x="0"
     inkscape:window-y="55"
     inkscape:window-maximized="1"
     inkscape:current-layer="svg2"
     fit-margin-top="0"
     fit-margin-left="0"
     fit-margin-right="0"
     fit-margin-bottom="0" />
  <circle
     style="opacity:1;fill:#7474ee;fill-opacity:1;stroke:none;stroke-width:0.94488192;stroke-linecap:round;stroke-miterlimit:4;stroke-dasharray:none;stroke-dashoffset:0;stroke-opacity:1"
     id="path819"
     cx="98"
     cy="98"
     r="88" />
  <g
     transform="translate(98.47244,97.527556)"
     id="g4517"
     style="fill:none;fill-opacity:1;stroke:#221d90;stroke-width:2;stroke-miterlimit:4;stroke-dasharray:none;stroke-opacity:1;filter:url(#filter4523)">
    <path
       style="fill:none;fill-opacity:1;fill-rule:evenodd;stroke:#221d90;stroke-width:2;stroke-linecap:butt;stroke-linejoin:miter;stroke-miterlimit:4;stroke-dasharray:none;stroke-opacity:1"
       d="m -54.046744,-29.307829 c 0,0 -10.409349,-2.498244 -0.832748,-13.879132 9.576601,-11.380888 17.348914,-6.245609 17.348914,-6.245609 0,0 -5.829235,-10.686932 7.078358,-13.60155 12.907592,-2.914617 17.487706,1.430854 17.487706,1.430854 0,0 4.857696,-9.619541 13.3239664,-8.092837 8.4662706,1.526705 14.2955056,7.217149 14.2955056,7.217149 0,0 2.03884,-11.059072 15.393004,-8.518095 9.385985,1.785927 8.300727,13.327323 8.300727,13.327323 0,0 10.171351,-4.254063 17.527291,5.600121 7.35594,9.854183 -0.103156,13.743697 -0.103156,13.743697 0,0 11.484044,-1.946435 10.373713,8.740496 -1.11033,10.686932 -10.905483,15.860117 -10.905483,15.860117 0,0 8.546031,9.8162772 -1.585735,15.7843039 -10.131767,5.9680271 -25.875401,0.5044263 -25.875401,0.5044263 0,0 -0.217367,9.4885488 -11.181881,12.5419578 C 5.6335225,18.158802 -0.18427958,9.3868277 -0.18427958,9.3868277 c 0,0 1.77018468,8.3160723 -10.45645142,9.5843713 -7.278423,0.755008 -12.265597,-4.422747 -14.134994,-10.0364144 0,0 -9.007487,3.3947814 -16.085844,-2.7120366 -7.078357,-6.1068176 -4.212208,-11.5815731 -4.212208,-11.5815731 0,0 -11.193629,3.3928857 -14.247038,-6.4612979 -3.053409,-9.854184 5.274071,-17.487706 5.274071,-17.487706 z"
       id="path4503"
       inkscape:connector-curvature="0"
       sodipodi:nodetypes="cscscscscscscscscscscsc" />
    <ellipse
       style="opacity:1;fill:none;fill-opacity:1;stroke:#221d90;stroke-width:2;stroke-linecap:round;stroke-miterlimit:4;stroke-dasharray:none;stroke-dashoffset:0;stroke-opacity:1"
       id="ellipse4505"
       cx="34.571514"
       cy="24.473806"
       rx="7.4253354"
       ry="7.564127" />
    <ellipse
       style="opacity:1;fill:none;fill-opacity:1;stroke:#221d90;stroke-width:2;stroke-linecap:round;stroke-miterlimit:4;stroke-dasharray:none;stroke-dashoffset:0;stroke-opacity:1"
       id="ellipse4507"
       cx="44.425697"
       cy="42.598549"
       rx="3.5391786"
       ry="3.4003873" />
    <ellipse
       style="opacity:1;fill:none;fill-opacity:1;stroke:#221d90;stroke-width:2;stroke-linecap:round;stroke-miterlimit:4;stroke-dasharray:none;stroke-dashoffset:0;stroke-opacity:1"
       id="ellipse4509"
       cx="-31.228046"
       cy="28.057432"
       rx="8.8826447"
       ry="8.8132486" />
    <ellipse
       style="opacity:1;fill:none;fill-opacity:1;stroke:#221d90;stroke-width:2;stroke-linecap:round;stroke-miterlimit:4;stroke-dasharray:none;stroke-dashoffset:0;stroke-opacity:1"
       id="ellipse4511"
       cx="-33.934479"
       cy="48.945526"
       rx="5.2046742"
       ry="4.718905" />
    <ellipse
       style="opacity:1;fill:none;fill-opacity:1;stroke:#221d90;stroke-width:2;stroke-linecap:round;stroke-miterlimit:4;stroke-dasharray:none;stroke-dashoffset:0;stroke-opacity:1"
       id="ellipse4513"
       cx="-31.089256"
       cy="64.767738"
       rx="2.9146178"
       ry="2.7758265" />
    <ellipse
       style="opacity:1;fill:none;fill-opacity:1;stroke:#221d90;stroke-width:2;stroke-linecap:round;stroke-miterlimit:4;stroke-dasharray:none;stroke-dashoffset:0;stroke-opacity:1"
       id="ellipse4515"
       cx="53.642845"
       cy="53.007896"
       rx="2.845222"
       ry="2.9840133" />
  </g>
  <g
     id="g4605"
     transform="translate(98.47244,97.527556)">
    <path
       sodipodi:nodetypes="cscscscscscscscscscscsc"
       inkscape:connector-curvature="0"
       id="path4483"
       d="m -54.046744,-29.307829 c 0,0 -10.409349,-2.498244 -0.832748,-13.879132 9.576601,-11.380888 17.348914,-6.245609 17.348914,-6.245609 0,0 -5.829235,-10.686932 7.078358,-13.60155 12.907592,-2.914617 17.487706,1.430854 17.487706,1.430854 0,0 4.857696,-9.619541 13.3239664,-8.092837 8.4662706,1.526705 14.2955056,7.217149 14.2955056,7.217149 0,0 2.03884,-11.059072 15.393004,-8.518095 9.385985,1.785927 8.300727,13.327323 8.300727,13.327323 0,0 10.171351,-4.254063 17.527291,5.600121 7.35594,9.854183 -0.103156,13.743697 -0.103156,13.743697 0,0 11.484044,-1.946435 10.373713,8.740496 -1.11033,10.686932 -10.905483,15.860117 -10.905483,15.860117 0,0 8.546031,9.8162772 -1.585735,15.7843039 -10.131767,5.9680271 -25.875401,0.5044263 -25.875401,0.5044263 0,0 -0.217367,9.4885488 -11.181881,12.5419578 C 5.6335225,18.158802 -0.18427958,9.3868277 -0.18427958,9.3868277 c 0,0 1.77018468,8.3160723 -10.45645142,9.5843713 -7.278423,0.755008 -12.265597,-4.422747 -14.134994,-10.0364144 0,0 -9.007487,3.3947814 -16.085844,-2.7120366 -7.078357,-6.1068176 -4.212208,-11.5815731 -4.212208,-11.5815731 0,0 -11.193629,3.3928857 -14.247038,-6.4612979 -3.053409,-9.854184 5.274071,-17.487706 5.274071,-17.487706 z"
       style="fill:#fdfdff;fill-opacity:1;fill-rule:evenodd;stroke:#000000;stroke-width:1px;stroke-linecap:butt;stroke-linejoin:miter;stroke-opacity:1" />
    <ellipse
       ry="7.564127"
       rx="7.4253354"
       cy="24.473806"
       cx="34.571514"
       id="path4485"
       style="opacity:1;fill:#fdfdff;fill-opacity:1;stroke:#000000;stroke-width:0.94488192;stroke-linecap:round;stroke-miterlimit:4;stroke-dasharray:none;stroke-dashoffset:0;stroke-opacity:1" />
    <ellipse
       ry="3.4003873"
       rx="3.5391786"
       cy="42.598549"
       cx="44.425697"
       id="path4487"
       style="opacity:1;fill:#fdfdff;fill-opacity:1;stroke:#000000;stroke-width:0.94488192;stroke-linecap:round;stroke-miterlimit:4;stroke-dasharray:none;stroke-dashoffset:0;stroke-opacity:1" />
    <ellipse
       ry="8.8132486"
       rx="8.8826447"
       cy="28.057432"
       cx="-31.228046"
       id="path4489"
       style="opacity:1;fill:#fdfdff;fill-opacity:1;stroke:#000000;stroke-width:0.94488192;stroke-linecap:round;stroke-miterlimit:4;stroke-dasharray:none;stroke-dashoffset:0;stroke-opacity:1" />
    <ellipse
       ry="4.718905"
       rx="5.2046742"
       cy="48.945526"
       cx="-33.934479"
       id="path4491"
       style="opacity:1;fill:#fdfdff;fill-opacity:1;stroke:#000000;stroke-width:0.94488192;stroke-linecap:round;stroke-miterlimit:4;stroke-dasharray:none;stroke-dashoffset:0;stroke-opacity:1" />
    <ellipse
       ry="2.7758265"
       rx="2.9146178"
       cy="64.767738"
       cx="-31.089256"
       id="path4493"
       style="opacity:1;fill:#fdfdff;fill-opacity:1;stroke:#000000;stroke-width:0.94488192;stroke-linecap:round;stroke-miterlimit:4;stroke-dasharray:none;stroke-dashoffset:0;stroke-opacity:1" />
    <ellipse
       ry="2.9840133"
       rx="2.845222"
       cy="53.007896"
       cx="53.642845"
       id="path4495"
       style="opacity:1;fill:#fdfdff;fill-opacity:1;stroke:#000000;stroke-width:0.94488192;stroke-linecap:round;stroke-miterlimit:4;stroke-dasharray:none;stroke-dashoffset:0;stroke-opacity:1" />
  </g>
  <path
     d="m 90.584767,96.27375 c 0,1.62701 1.331191,2.95819 2.958196,2.95819 h 11.832777 c 1.62699,0 2.9582,-1.33118 2.9582,-2.95819 V 93.315559 H 90.584767 Z M 99.45935,40.068055 c -11.41863,0 -20.707359,9.288727 -20.707359,20.707359 0,7.040506 3.520254,13.22313 8.874582,16.980042 v 6.685515 c 0,1.627009 1.33119,2.958196 2.958194,2.958196 h 17.749173 c 1.62701,0 2.9582,-1.331187 2.9582,-2.958196 v -6.685515 c 5.35431,-3.756912 8.87456,-9.939536 8.87456,-16.980042 0,-11.418632 -9.28872,-20.707359 -20.70735,-20.707359 z m 8.43085,32.835963 -2.51446,1.774915 v 6.803844 H 93.542963 v -6.803844 l -2.514467,-1.774915 c -3.993563,-2.780705 -6.360115,-7.306742 -6.360115,-12.128604 0,-8.164614 6.626352,-14.790972 14.790969,-14.790972 8.16466,0 14.79098,6.626358 14.79098,14.790972 0,4.821862 -2.36656,9.347899 -6.36013,12.128604 z"
     id="path14"
     inkscape:connector-curvature="0"
     style="stroke-width:2.95819449" />
</svg>
